<svg xmlns="http://www.w3.org/2000/svg" id="fdb0f8c4-3df2-405a-ba23-95c6aefe8bb3" data-name="Layer 1" width="959" height="554.5" viewBox="0 0 959 554.5">
<title>share_link</title>


<path d="M695.71,507.36,572.69,630.38a100.28643,100.28643,0,0,1-141.82,0c-1.66-1.66-3.26-3.37-4.78-5.13a96.84877,96.84877,0,0,1-6.99-9,98.77835,98.77835,0,0,1-15.84-38q-.855-4.455-1.29-9-.465-4.84506-.47-9.78a100.75451,100.75451,0,0,1,3.72-27.22q1.27506-4.575,2.99-9a100.066,100.066,0,0,1,22.66-34.69l53.67-53.67a14.99773,14.99773,0,0,1,21.21,21.21l-53.67,53.67a70.86742,70.86742,0,0,0-10.57,13.48,69.78657,69.78657,0,0,0-10.01,36.22,72.046,72.046,0,0,0,.67,9.78,68.42389,68.42389,0,0,0,1.86005,9A70.2693,70.2693,0,0,0,551.48,609.17l30.92-30.92,55-55,37.1-37.1a70.40164,70.40164,0,0,0,7.87-90.02,15.00468,15.00468,0,0,1,24.61-17.17A100.457,100.457,0,0,1,695.71,507.36Z" transform="translate(-120.5 -172.75)" fill="#3f3d56"/>
<path d="M888.5,273.03q0,1.11-.03,2.22a99.821,99.821,0,0,1-8.33,38,96.82561,96.82561,0,0,1-4.5,9,100.56063,100.56063,0,0,1-16.51,21.69l-53.67,53.67a14.99775,14.99775,0,0,1-21.21-21.21l53.67-53.67c.16-.16.32-.32.47-.48a69.874,69.874,0,0,0,20.07-47c.03-.74.04-1.48.04-2.22q0-3.42-.32-6.78a70.2081,70.2081,0,0,0-20.26-42.92c-1.07-1.07-2.16-2.1-3.29-3.08a70.28966,70.28966,0,0,0-92.82,0c-1.13.98-2.22,2.01-3.29,3.08L615.5,346.35a70.3745,70.3745,0,0,0,0,99.4,14.99773,14.99773,0,0,1-21.21,21.21,100.39527,100.39527,0,0,1,0-141.81995L717.31,202.12a100.38657,100.38657,0,0,1,156.21,18.13,96.266,96.266,0,0,1,4.97,9,99.43233,99.43233,0,0,1,9.78,37Q888.495,269.625,888.5,273.03Z" transform="translate(-120.5 -172.75)" fill="#3f3d56"/>




<path d="M803.5,271.25a20.24728,20.24728,0,0,1-.4,4,20.005,20.005,0,0,1-39.2,0,20.17518,20.17518,0,0,1,.23-9,20,20,0,0,1,39.37,5Z" transform="translate(-120.5 -172.75)" fill="#3f3d56"/>
<path d="M508.5,574.25a20.24728,20.24728,0,0,1-.4,4,20.005,20.005,0,0,1-39.2,0,20.17518,20.17518,0,0,1,.23-9,20,20,0,0,1,39.37,5Z" transform="translate(-120.5 -172.75)" fill="#3f3d56"/>


</svg>